<svg width="32" height="32" viewBox="0 0 32 32" fill="none" xmlns="http://www.w3.org/2000/svg">
<path d="M26.5738 23.7039C26.5764 23.9555 26.5115 24.2844 26.444 24.5555C25.972 26.4622 23.876 28.6017 20.9258 28.4071C18.252 28.2311 16.0742 26.9475 16.0742 25.1475C16.0742 23.3475 18.2467 21.8879 20.9258 21.8879C23.6049 21.8879 26.5569 21.9039 26.5738 23.7039Z" fill="#FDE2AB"/>
<path d="M20.927 22.1902C19.4879 22.1902 16.2034 22.5884 15.4496 22.5884C14.1181 22.5884 13.0381 23.424 13.0381 24.4551C13.0381 24.9511 13.2923 25.3991 13.6994 25.7333C13.6994 25.7333 14.5936 26.6302 16.2043 26.2C16.9092 26.0115 18.0559 24.6124 20.0745 24.3902C21.0799 24.2791 22.9634 25.0569 26.2736 25.0755C26.4159 24.7697 26.4452 24.5573 26.4452 24.5573C26.4452 22.7555 23.6061 22.1902 20.927 22.1902Z" fill="#FF9A00"/>
<path d="M26.4439 24.5556C26.4439 24.5556 28.3852 24.1618 29.5924 22.5743C30.9995 20.7227 30.8146 18.7414 30.8146 18.7414C32.2404 16.0747 30.3701 13.5743 30.3701 13.5743C30.1844 10.7591 28.4439 9.59293 28.4439 9.59293C27.3141 6.90759 24.8146 6.18582 24.8146 6.18582C22.8519 3.88982 19.3701 3.96359 19.3701 3.96359C19.3701 3.96359 16.1079 2.76804 11.6297 4.11204C10.8892 4.33426 8.40746 4.85248 6.59235 5.96359C0.871462 9.46582 0.438573 14.9271 0.518573 15.8151C0.962129 20.7778 4.44391 21.6667 6.66613 22.1849C7.18435 23.592 9.09191 26.1849 12.5177 25.2223C16.7399 24.4818 18.5177 23.2223 19.555 23.2223C20.5924 23.2223 23.4812 24.3334 26.4439 24.5556Z" fill="#FFA315"/>
<path d="M15.7659 16.576C17.8352 15.4605 18.957 15.5645 19.9472 15.6543C20.2619 15.6827 20.5597 15.7049 20.861 15.7032C22.6246 15.6632 24.053 14.92 24.685 14.2009C24.7575 14.1116 24.7925 13.9976 24.7829 13.883C24.7732 13.7683 24.7195 13.6619 24.6331 13.5859C24.5467 13.51 24.4342 13.4704 24.3193 13.4755C24.2044 13.4806 24.0959 13.53 24.0166 13.6134C23.5294 14.168 22.3286 14.7805 20.8406 14.8143C20.5739 14.8223 20.3063 14.7956 20.029 14.7698C18.9668 14.6712 17.6477 14.5503 15.3437 15.7938C14.7526 16.1129 13.9419 16.2312 13.0637 16.32C11.1108 13.5014 12.2859 11.0463 12.6219 10.4614C12.6548 10.4632 12.6868 10.4738 12.7206 10.4738C13.0761 10.4738 13.4334 10.3867 13.757 10.2036C13.8556 10.1436 13.9269 10.0476 13.956 9.93592C13.9851 9.82424 13.9695 9.70564 13.9127 9.60519C13.8559 9.50475 13.7623 9.43033 13.6516 9.39769C13.5409 9.36504 13.4219 9.37672 13.3197 9.43027C13.04 9.58421 12.7126 9.62697 12.4028 9.55001C12.093 9.47306 11.8237 9.28205 11.6486 9.01515C11.5824 8.92195 11.483 8.85778 11.3708 8.83597C11.2587 8.81417 11.1424 8.83641 11.0462 8.89806C10.95 8.95972 10.8812 9.05606 10.8542 9.16708C10.8272 9.27811 10.8439 9.39528 10.901 9.49427C11.1117 9.82404 11.4086 10.072 11.7437 10.2383C11.2806 11.1787 10.4014 13.6516 12.0743 16.4169C10.8974 16.5325 9.71877 16.6987 8.79611 17.2934C8.14761 17.7183 7.58193 18.2577 7.12677 18.8854C6.56766 18.7894 4.52055 18.2854 4.16322 16.0134C4.38544 15.8409 4.565 15.6134 4.67611 15.3325C4.69759 15.2782 4.70816 15.2202 4.70723 15.1619C4.7063 15.1035 4.69389 15.0459 4.6707 14.9923C4.6475 14.9387 4.61398 14.8903 4.57205 14.8497C4.53013 14.809 4.48061 14.7771 4.42633 14.7556C4.37205 14.7341 4.31407 14.7235 4.2557 14.7245C4.19734 14.7254 4.13972 14.7378 4.08615 14.761C4.03258 14.7842 3.98411 14.8177 3.94349 14.8597C3.90288 14.9016 3.87092 14.9511 3.84944 15.0054C3.81583 15.0988 3.76234 15.1838 3.69266 15.2546C3.62299 15.3253 3.53879 15.3801 3.44588 15.4152C3.35174 15.4464 3.25195 15.4571 3.15332 15.4463C3.0547 15.4356 2.95954 15.4037 2.87433 15.3529C2.82332 15.3246 2.76722 15.3065 2.70924 15.2998C2.65125 15.2932 2.59252 15.298 2.53639 15.314C2.42304 15.3463 2.32717 15.4224 2.26988 15.5254C2.2126 15.6284 2.19858 15.75 2.23092 15.8633C2.26326 15.9767 2.33931 16.0725 2.44233 16.1298C2.69477 16.2703 2.965 16.3414 3.23344 16.3414C3.26633 16.3414 3.29744 16.3263 3.33033 16.3245C3.75344 18.4694 5.44855 19.4116 6.64766 19.6969C6.49066 20.031 6.39119 20.3893 6.35344 20.7565C6.34308 20.8739 6.37978 20.9906 6.45545 21.0809C6.53113 21.1713 6.6396 21.2279 6.757 21.2383L6.797 21.24C6.90809 21.24 7.01515 21.1984 7.09708 21.1234C7.17902 21.0484 7.22989 20.9454 7.23966 20.8347C7.33566 19.7565 8.36411 18.6303 9.27788 18.0392C10.1348 17.4872 11.389 17.3707 12.6032 17.2578C13.781 17.1503 14.8939 17.0472 15.7659 16.576ZM27.2023 15.2392C27.1743 15.2904 27.1567 15.3467 27.1504 15.4047C27.1441 15.4628 27.1493 15.5215 27.1658 15.5776C27.1822 15.6336 27.2095 15.6859 27.2461 15.7314C27.2827 15.7769 27.328 15.8147 27.3792 15.8427C27.4305 15.8707 27.4867 15.8884 27.5448 15.8946C27.6029 15.9009 27.6616 15.8957 27.7176 15.8793C27.8308 15.8461 27.9262 15.7693 27.9828 15.6658C27.9997 15.6356 29.6201 12.6 26.5863 10.56C26.4885 10.4943 26.3685 10.4701 26.2528 10.4927C26.1372 10.5154 26.0352 10.5831 25.9694 10.6809C25.9037 10.7788 25.8795 10.8987 25.9021 11.0144C25.9248 11.1301 25.9925 11.232 26.0903 11.2978C28.4406 12.8783 27.2539 15.1432 27.2023 15.2392ZM8.77833 8.06226C8.84888 8.0625 8.91845 8.04584 8.98124 8.01367C9.04402 7.98151 9.0982 7.93477 9.13922 7.87738C10.4281 6.08449 12.213 6.69782 12.2886 6.72627C12.398 6.7624 12.5173 6.75458 12.6211 6.70446C12.7249 6.65434 12.8052 6.56584 12.845 6.45764C12.8848 6.34944 12.881 6.23001 12.8344 6.12456C12.7878 6.01911 12.702 5.9359 12.5952 5.89249C11.7419 5.57604 9.77122 5.47649 8.41744 7.35915C8.36992 7.42555 8.34161 7.50376 8.33561 7.58519C8.32962 7.66662 8.34617 7.74813 8.38346 7.82077C8.42074 7.89341 8.47732 7.95438 8.54697 7.99698C8.61663 8.03958 8.69668 8.06217 8.77833 8.06226ZM20.3979 6.38404C22.3757 6.22315 23.2752 7.65693 23.3161 7.72449C23.3759 7.82621 23.4736 7.90003 23.5878 7.9297C23.6443 7.9444 23.7032 7.94781 23.7611 7.93974C23.8189 7.93168 23.8746 7.9123 23.925 7.88271C23.9754 7.85312 24.0194 7.8139 24.0546 7.76728C24.0898 7.72067 24.1155 7.66757 24.1302 7.61103C24.1449 7.55449 24.1483 7.49561 24.1403 7.43775C24.1322 7.37989 24.1128 7.32419 24.0832 7.27382C24.0352 7.19293 22.8921 5.30227 20.3286 5.49782C20.2704 5.50237 20.2136 5.51834 20.1616 5.54482C20.1096 5.57129 20.0633 5.60775 20.0254 5.65212C19.9488 5.74172 19.9109 5.85808 19.9201 5.9756C19.9293 6.09312 19.9848 6.20217 20.0744 6.27877C20.164 6.35537 20.2804 6.39324 20.3979 6.38404ZM28.5312 19.3716C28.3126 19.3592 28.0717 19.5325 28.0521 19.7778C28.0503 19.7938 27.909 21.3058 26.3543 21.8169C26.2527 21.8489 26.1659 21.9163 26.1099 22.007C26.0539 22.0976 26.0324 22.2054 26.0494 22.3106C26.0663 22.4158 26.1206 22.5114 26.2022 22.5799C26.2838 22.6484 26.3873 22.6852 26.4939 22.6836C26.541 22.6836 26.5878 22.6761 26.6326 22.6614C28.741 21.9698 28.9312 19.9378 28.9383 19.8516C28.9477 19.734 28.9101 19.6175 28.8338 19.5276C28.7575 19.4377 28.6487 19.3816 28.5312 19.3716Z" fill="#FDE2AB"/>
<path d="M6.52987 15.0523C6.51238 15.1094 6.50656 15.1693 6.51274 15.2286C6.51892 15.288 6.53698 15.3454 6.56584 15.3976C6.5947 15.4498 6.63378 15.4957 6.68074 15.5325C6.72769 15.5693 6.78158 15.5962 6.83917 15.6117C6.89676 15.6273 6.95689 15.631 7.01597 15.6228C7.07505 15.6146 7.13187 15.5946 7.18305 15.5639C7.23423 15.5333 7.27872 15.4927 7.31387 15.4445C7.34902 15.3963 7.37411 15.3415 7.38765 15.2834C7.47323 14.9755 7.67224 14.7113 7.94467 14.5441C8.2171 14.3769 8.54273 14.319 8.85609 14.3821C8.91323 14.3941 8.97217 14.3947 9.02954 14.3839C9.0869 14.373 9.14158 14.351 9.19044 14.3191C9.23931 14.2871 9.2814 14.2459 9.31432 14.1977C9.34724 14.1495 9.37035 14.0952 9.38231 14.0381C9.39428 13.981 9.39487 13.922 9.38406 13.8647C9.37325 13.8073 9.35124 13.7526 9.3193 13.7037C9.28735 13.6549 9.2461 13.6128 9.19789 13.5799C9.14967 13.5469 9.09545 13.5238 9.03831 13.5119C8.66841 13.4368 8.28509 13.4633 7.92898 13.5883C6.89253 11.8159 7.09431 10.0683 7.09698 10.0497C7.11216 9.93293 7.0806 9.81493 7.00918 9.72136C6.93775 9.62779 6.83225 9.56624 6.71565 9.5501C6.59922 9.53513 6.48158 9.56654 6.38812 9.63755C6.29466 9.70856 6.23287 9.81348 6.21609 9.92966C6.20453 10.0159 5.9672 11.9883 7.16098 14.031C6.85624 14.3032 6.63701 14.658 6.52987 15.0523ZM16.4668 12.8568C16.6442 12.6953 16.8762 12.607 17.116 12.6094C17.3559 12.6119 17.586 12.705 17.7601 12.8701C17.8449 12.9517 17.9586 12.9965 18.0763 12.9946C18.194 12.9928 18.3063 12.9445 18.3885 12.8603C18.4707 12.7758 18.5159 12.6621 18.5142 12.5443C18.5126 12.4264 18.4642 12.314 18.3796 12.2319C18.1789 12.0409 17.9363 11.8993 17.6712 11.8185C17.9343 10.9154 17.8303 10.5145 17.5859 9.76344C17.5375 9.61648 17.491 9.46891 17.4463 9.32077L17.4196 9.23188C17.0961 8.1581 16.8819 7.44966 17.497 6.44966C17.5587 6.34923 17.5781 6.22838 17.5507 6.11369C17.5234 5.999 17.4516 5.89987 17.3512 5.8381C17.2508 5.77634 17.1299 5.757 17.0152 5.78433C16.9005 5.81167 16.8014 5.88345 16.7396 5.98388C15.9148 7.32432 16.2179 8.32788 16.569 9.48966L16.5956 9.57855C16.6481 9.75099 16.6961 9.9021 16.7405 10.0381C16.9601 10.7145 17.0268 10.9412 16.7583 11.759C16.4226 11.8201 16.1112 11.9755 15.8605 12.207C15.7774 12.2881 15.7294 12.3985 15.7267 12.5146C15.724 12.6307 15.7668 12.7433 15.846 12.8282C15.9253 12.9131 16.0346 12.9636 16.1506 12.969C16.2666 12.9743 16.3801 12.934 16.4668 12.8568ZM22.1245 10.2034C22.3885 10.2042 22.6493 10.1462 22.8881 10.0337C22.9948 9.98344 23.0771 9.89291 23.117 9.78197C23.157 9.67103 23.1512 9.54878 23.101 9.4421C23.0508 9.33543 22.9602 9.25307 22.8493 9.21314C22.7384 9.17322 22.6161 9.179 22.5094 9.22921C22.2909 9.32905 22.0428 9.34266 21.8147 9.26734C21.5865 9.19201 21.3953 9.03331 21.2792 8.82299C21.2528 8.76959 21.2159 8.72204 21.1707 8.68318C21.1256 8.64431 21.0731 8.61492 21.0163 8.59676C20.9596 8.57859 20.8998 8.57202 20.8404 8.57744C20.7811 8.58286 20.7235 8.60015 20.6709 8.62828C20.6184 8.65642 20.5721 8.69483 20.5347 8.74123C20.4973 8.78762 20.4697 8.84106 20.4534 8.89837C20.4371 8.95567 20.4324 9.01567 20.4398 9.0748C20.4471 9.13392 20.4663 9.19097 20.4961 9.24255C20.6561 9.54121 20.8943 9.77677 21.1716 9.94032C20.6943 11.1003 20.9654 12.3323 21.1868 12.9857C21.2037 13.043 21.232 13.0963 21.27 13.1425C21.308 13.1886 21.355 13.2266 21.408 13.2542C21.4611 13.2817 21.5191 13.2983 21.5787 13.3029C21.6383 13.3075 21.6982 13.3001 21.7549 13.281C21.8115 13.2619 21.8638 13.2316 21.9084 13.1919C21.9531 13.1521 21.9893 13.1038 22.0148 13.0497C22.0404 12.9957 22.0548 12.9371 22.0571 12.8773C22.0595 12.8176 22.0497 12.758 22.0285 12.7021C21.8792 12.2594 21.5894 11.1412 22.0268 10.1901C22.0605 10.1919 22.0916 10.2034 22.1245 10.2034ZM26.3885 18.5848C26.3851 18.5264 26.3702 18.4693 26.3446 18.4167C26.319 18.3642 26.2832 18.3172 26.2393 18.2786C26.1953 18.24 26.1442 18.2105 26.0888 18.1918C26.0334 18.1731 25.9749 18.1656 25.9165 18.1697C25.7034 18.1844 25.4895 18.1569 25.287 18.0887C25.0845 18.0205 24.8975 17.913 24.7367 17.7723C24.5759 17.6317 24.4444 17.4606 24.3499 17.2691C24.2554 17.0775 24.1996 16.8691 24.1859 16.6559C24.1759 16.539 24.1209 16.4306 24.0325 16.3535C23.9441 16.2764 23.8292 16.2366 23.7121 16.2425C23.5946 16.251 23.4852 16.3055 23.4078 16.3943C23.3304 16.483 23.2912 16.5988 23.2988 16.7163C23.3352 17.2408 23.5352 17.7137 23.8392 18.0985C23.1245 18.9394 22.1885 19.1785 21.6668 19.2399C21.2054 19.295 20.8019 19.2479 20.3352 19.1928C19.9076 19.1439 19.4241 19.0879 18.8259 19.1057L18.8214 19.1065C18.8036 18.8523 18.7432 18.4817 18.5503 18.1732C18.484 18.0819 18.3855 18.0191 18.2747 17.9977C18.1639 17.9762 18.049 17.9976 17.9534 18.0575C17.8578 18.1175 17.7885 18.2115 17.7595 18.3206C17.7306 18.4297 17.7441 18.5457 17.7974 18.6452C17.9165 18.8363 17.9388 19.1412 17.9388 19.2897C17.4908 19.4505 17.1032 19.687 16.753 19.9154C16.1272 20.3225 15.6339 20.6443 14.8916 20.4772C14.2196 20.3234 13.5468 20.2923 12.9761 20.3723C12.8872 20.1492 12.7468 19.8825 12.5299 19.6772C12.4442 19.5962 12.3298 19.5526 12.212 19.5559C12.0941 19.5593 11.9824 19.6093 11.9014 19.695C11.8204 19.7807 11.7768 19.895 11.7802 20.0129C11.7835 20.1308 11.8335 20.2425 11.9192 20.3234C11.9956 20.3954 12.0561 20.5003 12.105 20.6052C11.1245 21.0088 10.633 21.6834 10.6099 21.7163C10.5627 21.7827 10.5347 21.8608 10.529 21.942C10.5233 22.0232 10.54 22.1044 10.5774 22.1768C10.6147 22.2491 10.6713 22.3098 10.7408 22.3521C10.8104 22.3944 10.8902 22.4168 10.9716 22.4168C11.0419 22.4169 11.1112 22.4005 11.1739 22.3689C11.2366 22.3372 11.291 22.2912 11.3325 22.2345C11.337 22.2274 11.825 21.5741 12.7876 21.3101C13.2854 21.1732 13.9992 21.1848 14.6952 21.343C14.8899 21.3874 15.0703 21.4025 15.2454 21.4052C15.3281 21.599 15.3601 21.8292 15.3645 21.9145C15.3711 22.0278 15.4207 22.1343 15.5031 22.2123C15.5855 22.2903 15.6946 22.3338 15.8081 22.3341L15.8321 22.3332C15.9494 22.327 16.0594 22.2746 16.1382 22.1875C16.217 22.1004 16.2581 21.9856 16.2525 21.8683C16.2377 21.6613 16.1989 21.4567 16.137 21.2585C16.5468 21.1101 16.9032 20.8781 17.2383 20.6603C17.7468 20.3288 18.2276 20.015 18.8561 19.9945C19.3823 19.9759 19.8161 20.0265 20.2348 20.0754C20.6561 20.1243 21.0703 20.1563 21.5272 20.1297C21.6081 20.3545 21.6019 20.655 21.5894 20.7554C21.5819 20.818 21.5877 20.8815 21.6064 20.9417C21.6252 21.0019 21.6564 21.0574 21.6981 21.1047C21.7399 21.1519 21.7911 21.1898 21.8485 21.2159C21.9059 21.242 21.9682 21.2556 22.0312 21.2559C22.1389 21.2557 22.243 21.2164 22.3239 21.1453C22.4049 21.0742 22.4572 20.9761 22.4712 20.8692C22.5038 20.5777 22.486 20.2827 22.4188 19.9972C23.2297 19.782 23.9565 19.3262 24.5032 18.6897C24.9439 18.9618 25.4583 19.0901 25.9752 19.0568C26.0333 19.0529 26.0901 19.0377 26.1424 19.0119C26.1946 18.9861 26.2413 18.9502 26.2796 18.9064C26.318 18.8626 26.3474 18.8116 26.3661 18.7564C26.3848 18.7012 26.3924 18.6429 26.3885 18.5848Z" fill="#FDE2AB"/>
</svg>
