<svg width="286" height="25" viewBox="0 0 286 25" fill="none" xmlns="http://www.w3.org/2000/svg">
<path d="M11.584 23.2V23.712H0.96V23.2H3.008V2.112H0.96V1.6H19.104V9.216H18.592C18.592 6.82667 18.0907 5.04533 17.088 3.872C16.1067 2.69867 14.3893 2.112 11.936 2.112H9.536V11.968H11.04C13.856 11.968 15.264 10.4427 15.264 7.392H15.776V17.152H15.264C15.264 15.616 14.88 14.4533 14.112 13.664C13.3653 12.8747 12.2987 12.48 10.912 12.48H9.536V23.2H11.584ZM32.6705 23.2V23.712H21.0225V23.2H23.3905V2.112H21.0225V1.6H32.6065V2.112H29.9185V23.2H32.6705ZM33.241 2.112V1.6H39.801C40.6757 1.6 41.3903 1.74933 41.945 2.048C42.521 2.32533 43.1183 2.95467 43.737 3.936L51.833 16.96H51.961V9.088C51.961 5.84533 51.6837 3.88267 51.129 3.2C50.5103 2.47467 49.5823 2.112 48.345 2.112H47.289V1.6H56.601V2.112H56.217C55.001 2.15467 54.169 2.47467 53.721 3.072C53.465 3.392 53.2517 3.72267 53.081 4.064C52.9317 4.384 52.825 4.85333 52.761 5.472C52.6543 6.496 52.601 7.712 52.601 9.12V23.712H50.713C49.8383 23.712 49.113 23.5733 48.537 23.296C47.9823 22.9973 47.3957 22.3573 46.777 21.376L37.305 6.464V16.864C37.305 19.9787 37.5823 21.8027 38.137 22.336C38.7557 22.912 39.6837 23.2 40.921 23.2H41.529V23.712H32.537V23.2H33.049C34.3077 23.1573 35.2357 22.816 35.833 22.176C36.3877 21.5787 36.665 19.7973 36.665 16.832V5.44L36.121 4.576C36.0997 4.55467 36.025 4.43733 35.897 4.224C35.769 3.98933 35.673 3.82933 35.609 3.744C35.545 3.63733 35.4383 3.488 35.289 3.296C35.1397 3.08267 35.001 2.92267 34.873 2.816C34.745 2.70933 34.5957 2.592 34.425 2.464C34.105 2.22933 33.7103 2.112 33.241 2.112ZM76.3595 23.2V23.712H66.0555V23.2H68.1355L65.6715 16.096H60.3915L59.2715 19.392C58.9942 20.224 58.8555 20.8427 58.8555 21.248C58.8555 21.9947 59.1008 22.5067 59.5915 22.784C60.1035 23.0613 60.8182 23.2 61.7355 23.2H62.8555V23.712H54.6315V23.2C55.2715 23.2 55.7942 23.136 56.1995 23.008C56.6262 22.8587 56.9888 22.5813 57.2875 22.176C57.5862 21.7493 57.7995 21.376 57.9275 21.056C58.0768 20.736 58.2902 20.1707 58.5675 19.36L64.1035 3.68C64.2742 3.18933 64.4342 2.80533 64.5835 2.528C64.7328 2.25067 65.0422 1.97333 65.5115 1.696C66.0022 1.39733 66.6208 1.248 67.3675 1.248L75.0155 23.2H76.3595ZM63.0475 8.48L60.5835 15.584H65.5115L63.0475 8.48ZM75.3347 2.112V1.6H81.8948C82.7694 1.6 83.4841 1.74933 84.0388 2.048C84.6148 2.32533 85.2121 2.95467 85.8308 3.936L93.9268 16.96H94.0548V9.088C94.0548 5.84533 93.7774 3.88267 93.2228 3.2C92.6041 2.47467 91.6761 2.112 90.4388 2.112H89.3828V1.6H98.6948V2.112H98.3108C97.0948 2.15467 96.2628 2.47467 95.8148 3.072C95.5588 3.392 95.3454 3.72267 95.1748 4.064C95.0254 4.384 94.9188 4.85333 94.8548 5.472C94.7481 6.496 94.6948 7.712 94.6948 9.12V23.712H92.8068C91.9321 23.712 91.2068 23.5733 90.6308 23.296C90.0761 22.9973 89.4894 22.3573 88.8708 21.376L79.3988 6.464V16.864C79.3988 19.9787 79.6761 21.8027 80.2308 22.336C80.8494 22.912 81.7774 23.2 83.0148 23.2H83.6228V23.712H74.6307V23.2H75.1427C76.4014 23.1573 77.3294 22.816 77.9268 22.176C78.4814 21.5787 78.7588 19.7973 78.7588 16.832V5.44L78.2148 4.576C78.1934 4.55467 78.1188 4.43733 77.9908 4.224C77.8628 3.98933 77.7668 3.82933 77.7028 3.744C77.6388 3.63733 77.5321 3.488 77.3828 3.296C77.2334 3.08267 77.0948 2.92267 76.9668 2.816C76.8388 2.70933 76.6894 2.592 76.5188 2.464C76.1988 2.22933 75.8041 2.112 75.3347 2.112ZM110.453 1.6C108.811 1.6 107.627 2.47467 106.901 4.224C106.197 5.97333 105.845 8.72533 105.845 12.48C105.845 16.2347 106.197 19.0293 106.901 20.864C107.627 22.6773 108.811 23.584 110.453 23.584C111.776 23.584 112.949 23.1573 113.973 22.304C115.019 21.4293 115.776 20.4373 116.245 19.328C116.736 18.1973 116.981 17.1307 116.981 16.128H117.653C117.504 18.6667 116.683 20.672 115.189 22.144C113.696 23.5947 111.925 24.32 109.877 24.32C106.187 24.32 103.403 23.264 101.525 21.152C99.6693 19.0187 98.7413 16.16 98.7413 12.576C98.7413 9.71733 99.6053 7.12533 101.333 4.8C102.187 3.66933 103.339 2.752 104.789 2.048C106.24 1.344 107.883 0.991999 109.717 0.991999C110.848 0.991999 111.904 1.184 112.885 1.568C113.888 1.93067 114.592 2.112 114.997 2.112C115.403 2.112 115.723 2.02667 115.957 1.856C116.213 1.664 116.416 1.376 116.565 0.991999H116.981V10.08H116.565C116.352 9.35467 116.203 8.84267 116.117 8.544C116.032 8.224 115.861 7.70133 115.605 6.976C115.349 6.25067 115.125 5.70667 114.933 5.344C114.741 4.96 114.475 4.49067 114.133 3.936C113.792 3.36 113.461 2.93333 113.141 2.656C112.288 1.952 111.392 1.6 110.453 1.6ZM131.233 23.2V23.712H119.585V23.2H121.953V2.112H119.585V1.6H131.169V2.112H128.481V23.2H131.233ZM152.86 23.2V23.712H142.556V23.2H144.636L142.172 16.096H136.891L135.772 19.392C135.494 20.224 135.356 20.8427 135.356 21.248C135.356 21.9947 135.601 22.5067 136.092 22.784C136.604 23.0613 137.318 23.2 138.236 23.2H139.356V23.712H131.132V23.2C131.772 23.2 132.294 23.136 132.7 23.008C133.126 22.8587 133.489 22.5813 133.788 22.176C134.086 21.7493 134.3 21.376 134.428 21.056C134.577 20.736 134.79 20.1707 135.068 19.36L140.604 3.68C140.774 3.18933 140.934 2.80533 141.084 2.528C141.233 2.25067 141.542 1.97333 142.012 1.696C142.502 1.39733 143.121 1.248 143.868 1.248L151.516 23.2H152.86ZM139.548 8.48L137.084 15.584H142.012L139.548 8.48ZM153.179 23.712V23.2H155.227V2.112H153.179V1.6H164.443V2.112H161.755V23.2H162.875C165.221 23.2 167.013 22.2507 168.251 20.352C169.488 18.432 170.107 15.872 170.107 12.672H170.747V23.712H153.179ZM184.839 23.712V23.2H187.207V2.112C186.247 2.112 185.383 2.4 184.615 2.976C183.847 3.53067 183.249 4.20267 182.823 4.992C182.417 5.76 182.087 6.61333 181.831 7.552C181.383 9.10933 181.159 10.464 181.159 11.616H180.679V1.6H200.263V11.616H199.783C199.783 10.464 199.601 9.26933 199.239 8.032C198.897 6.77333 198.513 5.76 198.087 4.992C197.681 4.20267 197.095 3.53067 196.327 2.976C195.559 2.4 194.695 2.112 193.735 2.112V23.2H196.103V23.712H184.839ZM213.827 23.2V23.712H202.179V23.2H204.547V2.112H202.179V1.6H213.763V2.112H211.075V23.2H213.827ZM218.429 4.928V17.504C218.429 19.3387 218.504 20.5867 218.653 21.248C218.803 21.9093 219.005 22.336 219.261 22.528C219.837 22.976 220.765 23.2 222.045 23.2H222.813V23.712H213.821V23.2H214.173C215.411 23.1573 216.339 22.8907 216.957 22.4C217.384 22.016 217.64 21.12 217.725 19.712C217.768 19.2 217.789 18.4533 217.789 17.472V4.416C217.789 3.52 217.555 2.912 217.085 2.592C216.616 2.272 215.869 2.112 214.845 2.112V1.6H224.541L230.077 16.064L234.781 1.6H242.973V2.112H240.925V23.2H242.973V23.712H232.541V23.2H234.589V4.928H234.365L228.253 23.712H227.645C226.408 23.712 225.491 22.9227 224.893 21.344L218.557 4.928H218.429ZM244.898 23.712V23.2H246.946V2.112H244.898V1.6H263.042V8.896H262.53C262.53 6.54933 262.039 4.832 261.058 3.744C260.076 2.656 258.348 2.112 255.874 2.112H253.474V11.968H254.658C257.474 11.968 258.882 10.4427 258.882 7.392H259.426V17.152H258.882C258.882 15.616 258.498 14.4533 257.73 13.664C256.983 12.8747 255.916 12.48 254.53 12.48H253.474V23.2H255.426C258.647 23.2 260.77 22.3787 261.794 20.736C262.327 19.904 262.679 19.0187 262.85 18.08C263.042 17.1413 263.138 15.9787 263.138 14.592H263.65V23.712H244.898ZM285.171 17.12C285.171 19.4667 284.296 21.2587 282.547 22.496C280.819 23.712 278.686 24.32 276.147 24.32C275.016 24.32 273.768 24.1173 272.403 23.712C271.059 23.3067 270.184 23.104 269.779 23.104C269.374 23.104 269.022 23.2107 268.723 23.424C268.424 23.616 268.211 23.808 268.083 24L267.891 24.32H267.379V15.232H267.891C268.296 16.32 268.638 17.1947 268.915 17.856C269.214 18.5173 269.608 19.264 270.099 20.096C270.611 20.928 271.123 21.5787 271.635 22.048C272.147 22.5173 272.787 22.9227 273.555 23.264C274.344 23.584 275.219 23.744 276.179 23.744C277.139 23.744 277.971 23.456 278.675 22.88C279.379 22.2827 279.731 21.3867 279.731 20.192C279.731 19.296 279.347 18.528 278.579 17.888C278.003 17.3973 277.363 16.9813 276.659 16.64C275.955 16.2773 275.358 15.9893 274.867 15.776C274.398 15.5413 273.864 15.2853 273.267 15.008C272.691 14.7307 272.094 14.4107 271.475 14.048C270.878 13.664 270.248 13.184 269.587 12.608C268.243 11.4347 267.571 9.824 267.571 7.776C267.571 5.728 268.36 4.08533 269.939 2.848C271.539 1.61067 273.544 0.991999 275.955 0.991999C277.086 0.991999 278.28 1.184 279.539 1.568C280.819 1.93067 281.662 2.112 282.067 2.112C282.472 2.112 282.792 2.02667 283.027 1.856C283.283 1.664 283.486 1.376 283.635 0.991999H284.147V8.832H283.635C283.08 6.93333 282.152 5.248 280.851 3.776C279.55 2.304 278.035 1.568 276.307 1.568C274.024 1.568 272.883 2.64533 272.883 4.8C272.883 5.888 273.278 6.77333 274.067 7.456C274.963 8.224 276.659 9.17333 279.155 10.304C281.374 11.3067 282.75 12.1067 283.283 12.704C283.582 13.024 283.902 13.3973 284.243 13.824C284.862 14.6347 285.171 15.7333 285.171 17.12Z" fill="black"/>
</svg>
