<svg width="45" height="45" viewBox="0 0 45 45" fill="none" xmlns="http://www.w3.org/2000/svg">
<circle cx="22.5" cy="22.5" r="22.5" fill="#242424"/>
<g clip-path="url(#clip0)">
<path d="M17.75 24.5H16.25V35H17.75C18.1625 35 18.5 34.6625 18.5 34.25V25.25C18.5 24.8375 18.1625 24.5 17.75 24.5Z" fill="#FFA315"/>
<path d="M28.25 24.5C27.8375 24.5 27.5 24.8375 27.5 25.25V34.25C27.5 34.6625 27.8375 35 28.25 35H29.75V24.5H28.25Z" fill="#FFA315"/>
<path d="M35.0004 22.9998C34.9993 21.2485 34.6148 19.5186 33.874 17.9317C33.1331 16.3448 32.054 14.9393 30.7122 13.8138C29.3704 12.6884 27.7985 11.8702 26.1069 11.4169C24.4153 10.9635 22.645 10.8859 20.9202 11.1895C19.1954 11.4931 17.558 12.1705 16.1228 13.1743C14.6877 14.178 13.4897 15.4837 12.6128 16.9997C11.736 18.5157 11.2016 20.2052 11.0472 21.9497C10.8928 23.6942 11.122 25.4513 11.7189 27.0978C11.2843 27.8404 11.0389 28.6785 11.0043 29.5383C10.9696 30.3981 11.1469 31.2533 11.5204 32.0285C11.8939 32.8037 12.4523 33.4752 13.1463 33.9839C13.8403 34.4926 14.6488 34.8229 15.5004 34.9458V24.5538C14.7689 24.6583 14.0679 24.917 13.4439 25.3128C13.1582 23.8973 13.1905 22.4361 13.5384 21.0346C13.8863 19.6332 14.5411 18.3265 15.4556 17.209C16.3701 16.0914 17.5214 15.191 18.8263 14.5727C20.1312 13.9544 21.5572 13.6337 23.0012 13.6337C24.4452 13.6337 25.8711 13.9544 27.1761 14.5727C28.481 15.191 29.6323 16.0914 30.5468 17.209C31.4612 18.3265 32.1161 19.6332 32.464 21.0346C32.8119 22.4361 32.8441 23.8973 32.5584 25.3128C31.934 24.9165 31.2325 24.6573 30.5004 24.5523V34.9458C31.3521 34.8229 32.1605 34.4926 32.8546 33.9839C33.5486 33.4752 34.1069 32.8037 34.4805 32.0285C34.854 31.2533 35.0312 30.3981 34.9966 29.5383C34.962 28.6785 34.7166 27.8404 34.2819 27.0978C34.7469 25.8183 35.0004 24.4383 35.0004 22.9998Z" fill="#FFA315"/>
</g>
<defs>
<clipPath id="clip0">
<rect width="24" height="24" fill="white" transform="translate(11 11)"/>
</clipPath>
</defs>
</svg>
