<svg width="32" height="32" viewBox="0 0 32 32" fill="none" xmlns="http://www.w3.org/2000/svg">
<circle cx="16" cy="16" r="16" fill="#FFA315"/>
<g clip-path="url(#clip0)">
<path d="M12.6223 17.4224H11.5557V24.889H12.6223C12.9157 24.889 13.1557 24.649 13.1557 24.3557V17.9557C13.1557 17.6624 12.9157 17.4224 12.6223 17.4224Z" fill="#242424"/>
<path d="M20.089 17.4224C19.7957 17.4224 19.5557 17.6624 19.5557 17.9557V24.3557C19.5557 24.649 19.7957 24.889 20.089 24.889H21.1557V17.4224H20.089Z" fill="#242424"/>
<path d="M24.8892 16.3552C24.8884 15.1099 24.615 13.8798 24.0882 12.7513C23.5614 11.6228 22.794 10.6234 21.8398 9.82304C20.8857 9.0227 19.7679 8.44092 18.565 8.11853C17.362 7.79613 16.1031 7.74095 14.8766 7.95684C13.6501 8.17273 12.4857 8.65446 11.4652 9.36823C10.4446 10.082 9.5927 11.0105 8.96917 12.0885C8.34564 13.1666 7.96563 14.368 7.85582 15.6085C7.746 16.8491 7.90905 18.0986 8.33351 19.2694C8.02443 19.7975 7.84991 20.3935 7.82529 21.0049C7.80067 21.6163 7.92672 22.2244 8.19233 22.7757C8.45795 23.3269 8.855 23.8044 9.34853 24.1662C9.84205 24.5279 10.4169 24.7628 11.0226 24.8502V17.4603C10.5024 17.5346 10.0039 17.7186 9.56018 18C9.35701 16.9935 9.37995 15.9544 9.62734 14.9578C9.87473 13.9612 10.3404 13.032 10.9907 12.2373C11.641 11.4427 12.4597 10.8024 13.3876 10.3627C14.3156 9.92298 15.3296 9.6949 16.3564 9.6949C17.3833 9.6949 18.3973 9.92298 19.3252 10.3627C20.2532 10.8024 21.0719 11.4427 21.7222 12.2373C22.3725 13.032 22.8382 13.9612 23.0855 14.9578C23.3329 15.9544 23.3559 16.9935 23.1527 18C22.7086 17.7183 22.2098 17.5339 21.6892 17.4592V24.8502C22.2949 24.7628 22.8698 24.5279 23.3633 24.1662C23.8568 23.8044 24.2539 23.3269 24.5195 22.7757C24.7851 22.2244 24.9111 21.6163 24.8865 21.0049C24.8619 20.3935 24.6874 19.7975 24.3783 19.2694C24.709 18.3595 24.8892 17.3782 24.8892 16.3552Z" fill="#242424"/>
</g>
<defs>
<clipPath id="clip0">
<rect width="17.0667" height="17.0667" fill="white" transform="translate(7.82227 7.82227)"/>
</clipPath>
</defs>
</svg>
