<svg width="45" height="45" viewBox="0 0 45 45" fill="none" xmlns="http://www.w3.org/2000/svg">
<circle cx="22.5" cy="22.5" r="22.5" fill="#FFA315"/>
<g clip-path="url(#clip0)">
<path d="M17.75 24.5H16.25V35H17.75C18.1625 35 18.5 34.6625 18.5 34.25V25.25C18.5 24.8375 18.1625 24.5 17.75 24.5Z" fill="#242424"/>
<path d="M28.25 24.5C27.8375 24.5 27.5 24.8375 27.5 25.25V34.25C27.5 34.6625 27.8375 35 28.25 35H29.75V24.5H28.25Z" fill="#242424"/>
<path d="M35.0004 22.9996C34.9993 21.2483 34.6148 19.5185 33.874 17.9316C33.1331 16.3447 32.054 14.9392 30.7122 13.8137C29.3704 12.6883 27.7985 11.8701 26.1069 11.4168C24.4153 10.9634 22.645 10.8858 20.9202 11.1894C19.1954 11.493 17.558 12.1704 16.1228 13.1741C14.6877 14.1779 13.4897 15.4836 12.6128 16.9996C11.736 18.5155 11.2016 20.2051 11.0472 21.9496C10.8928 23.6941 11.122 25.4512 11.7189 27.0976C11.2843 27.8403 11.0389 28.6784 11.0043 29.5382C10.9696 30.398 11.1469 31.2531 11.5204 32.0283C11.8939 32.8035 12.4523 33.475 13.1463 33.9838C13.8403 34.4925 14.6488 34.8228 15.5004 34.9456V24.5536C14.7689 24.6581 14.0679 24.9169 13.4439 25.3126C13.1582 23.8972 13.1905 22.436 13.5384 21.0345C13.8863 19.633 14.5411 18.3264 15.4556 17.2088C16.3701 16.0913 17.5214 15.1909 18.8263 14.5726C20.1312 13.9543 21.5572 13.6335 23.0012 13.6335C24.4452 13.6335 25.8711 13.9543 27.1761 14.5726C28.481 15.1909 29.6323 16.0913 30.5468 17.2088C31.4612 18.3264 32.1161 19.633 32.464 21.0345C32.8119 22.436 32.8441 23.8972 32.5584 25.3126C31.934 24.9164 31.2325 24.6572 30.5004 24.5521V34.9456C31.3521 34.8228 32.1605 34.4925 32.8546 33.9838C33.5486 33.475 34.1069 32.8035 34.4805 32.0283C34.854 31.2531 35.0312 30.398 34.9966 29.5382C34.962 28.6784 34.7166 27.8403 34.2819 27.0976C34.7469 25.8181 35.0004 24.4381 35.0004 22.9996Z" fill="#242424"/>
</g>
<defs>
<clipPath id="clip0">
<rect width="24" height="24" fill="white" transform="translate(11 11)"/>
</clipPath>
</defs>
</svg>
