<svg width="24" height="24" viewBox="0 0 24 24" fill="none" xmlns="http://www.w3.org/2000/svg">
<path d="M24.0004 11.9996C23.9993 10.2483 23.6148 8.51852 22.874 6.93161C22.1331 5.34471 21.054 3.93919 19.7122 2.81372C18.3704 1.68825 16.7985 0.87012 15.1069 0.416755C13.4153 -0.0366109 11.645 -0.11422 9.92019 0.189377C8.1954 0.492974 6.55796 1.17042 5.12284 2.17415C3.68771 3.17788 2.48967 4.48357 1.61283 5.99956C0.735994 7.51555 0.201605 9.20509 0.0471813 10.9496C-0.107243 12.6941 0.122041 14.4512 0.718937 16.0976C0.284298 16.8403 0.0388695 17.6784 0.00425091 18.5382C-0.0303677 19.398 0.146885 20.2531 0.520409 21.0283C0.893934 21.8035 1.45228 22.475 2.1463 22.9838C2.84033 23.4925 3.64876 23.8228 4.50044 23.9456V13.5536C3.76892 13.6581 3.06795 13.9169 2.44394 14.3126C2.15823 12.8972 2.19049 11.436 2.53839 10.0345C2.88628 8.63304 3.54113 7.32635 4.45561 6.20884C5.3701 5.09132 6.52139 4.19089 7.82631 3.57258C9.13123 2.95427 10.5572 2.63353 12.0012 2.63353C13.4452 2.63353 14.8711 2.95427 16.1761 3.57258C17.481 4.19089 18.6323 5.09132 19.5468 6.20884C20.4612 7.32635 21.1161 8.63304 21.464 10.0345C21.8119 11.436 21.8441 12.8972 21.5584 14.3126C20.934 13.9164 20.2325 13.6572 19.5004 13.5521V23.9456C20.3521 23.8228 21.1605 23.4925 21.8546 22.9838C22.5486 22.475 23.1069 21.8035 23.4805 21.0283C23.854 20.2531 24.0312 19.398 23.9966 18.5382C23.962 17.6784 23.7166 16.8403 23.2819 16.0976C23.7469 14.8181 24.0004 13.4381 24.0004 11.9996Z" fill="#242424"/>
</svg>
